# xmcd
# Copyright (C) 1995-1998 Ti Kan
#
# Track frame offsets:
#       150
#       10870
#       23476
#       34644
#       46604
#       55534
#       69271
#       78160
#       87177
#       95443
#       104900
#       113316
#       123161
#       139459
#       156109
#       170832
#       181066
#       192385
#       206708
#       217627
#       227338
#       245670
#       254654
#       269593
#       287504
#       296595
#       312458
#
# Disc length: 4438 seconds
#
# Revision: 0
# Processed by: cddbd v1.5.2PL0 Copyright (c) Steve Scherf et al.
# Submitted via: CD-Import v1.0
#
DISCID=6f11541b
DTITLE=5.6.7.8's - Bomb The Rocks
DYEAR=2003
DGENRE=
TTITLE0=Bomb The Twist
TTITLE1=Jane In The Jungle
TTITLE2=Three Cool Chicks
TTITLE3=Guitar Date
TTITLE4=Woohoo
TTITLE5=Dream Boy
TTITLE6=Continental Hop
TTITLE7=Jump Jack Jump
TTITLE8=Smilly Willy
TTITLE9=Mr.lee
TTITLE10=It's Rainy
TTITLE11=Road Runner
TTITLE12=My Boyfriend From Outer Space
TTITLE13=She Was A Maumau
TTITLE14=Long Tall Sally
TTITLE15=Scream
TTITLE16=Hot Generation
TTITLE17=Bond Girl
TTITLE18=Fruit Bubble Love
TTITLE19=Motor-Cycle Go-Go-Go
TTITLE20=Jet Coaster
TTITLE21=The 5.6.7.8's
TTITLE22=Edie Is A Sweet Candy
TTITLE23=I Was A Teenage Cavewoman
TTITLE24=Ah-So
TTITLE25=Pinball Party
TTITLE26=Blue Radio
EXTD=
EXTT0=
EXTT1=
EXTT2=
EXTT3=
EXTT4=
EXTT5=
EXTT6=
EXTT7=
EXTT8=
EXTT9=
EXTT10=
EXTT11=
EXTT12=
EXTT13=
EXTT14=
EXTT15=
EXTT16=
EXTT17=
EXTT18=
EXTT19=
EXTT20=
EXTT21=
EXTT22=
EXTT23=
EXTT24=
EXTT25=
EXTT26=
PLAYORDER=
